<svg xmlns="http://www.w3.org/2000/svg" width="252.44999999999996" height="35" viewBox="0 0 252.44999999999996 35"><rect class="svg__rect" x="0" y="0" width="86.85" height="35" fill="#DECA66"/><rect class="svg__rect" x="84.85" y="0" width="167.59999999999997" height="35" fill="#B3F35E"/><path class="svg__text" d="M15.70 22L14.22 22L14.22 13.47L17.48 13.47Q18.91 13.47 19.75 14.21Q20.59 14.96 20.59 16.18L20.59 16.18Q20.59 17.44 19.77 18.13Q18.95 18.83 17.46 18.83L17.46 18.83L15.70 18.83L15.70 22ZM15.70 14.66L15.70 17.64L17.48 17.64Q18.27 17.64 18.69 17.27Q19.10 16.90 19.10 16.19L19.10 16.19Q19.10 15.50 18.68 15.09Q18.26 14.68 17.52 14.66L17.52 14.66L15.70 14.66ZM24.61 18.00L24.61 18.00L24.61 17.52Q24.61 16.28 25.05 15.32Q25.49 14.37 26.30 13.86Q27.10 13.35 28.14 13.35Q29.19 13.35 29.99 13.85Q30.80 14.35 31.24 15.29Q31.68 16.23 31.68 17.48L31.68 17.48L31.68 17.96Q31.68 19.21 31.25 20.16Q30.82 21.10 30.01 21.61Q29.21 22.12 28.16 22.12L28.16 22.12Q27.12 22.12 26.31 21.61Q25.50 21.10 25.05 20.17Q24.61 19.23 24.61 18.00ZM26.09 17.46L26.09 17.96Q26.09 19.36 26.64 20.13Q27.18 20.90 28.16 20.90L28.16 20.90Q29.14 20.90 29.67 20.15Q30.20 19.40 30.20 17.96L30.20 17.96L30.20 17.51Q30.20 16.09 29.67 15.34Q29.13 14.58 28.14 14.58L28.14 14.58Q27.18 14.58 26.64 15.33Q26.10 16.09 26.09 17.46L26.09 17.46ZM37.83 14.66L35.19 14.66L35.19 13.47L41.96 13.47L41.96 14.66L39.30 14.66L39.30 22L37.83 22L37.83 14.66ZM46.50 22L44.96 22L48.18 13.47L49.51 13.47L52.74 22L51.19 22L50.49 20.01L47.19 20.01L46.50 22ZM48.84 15.28L47.60 18.82L50.08 18.82L48.84 15.28ZM58.37 14.66L55.74 14.66L55.74 13.47L62.50 13.47L62.50 14.66L59.84 14.66L59.84 22L58.37 22L58.37 14.66ZM65.99 18.00L65.99 18.00L65.99 17.52Q65.99 16.28 66.43 15.32Q66.88 14.37 67.68 13.86Q68.49 13.35 69.53 13.35Q70.57 13.35 71.38 13.85Q72.18 14.35 72.62 15.29Q73.06 16.23 73.07 17.48L73.07 17.48L73.07 17.96Q73.07 19.21 72.64 20.16Q72.20 21.10 71.40 21.61Q70.59 22.12 69.54 22.12L69.54 22.12Q68.50 22.12 67.69 21.61Q66.88 21.10 66.44 20.17Q66.00 19.23 65.99 18.00ZM67.47 17.46L67.47 17.96Q67.47 19.36 68.02 20.13Q68.57 20.90 69.54 20.90L69.54 20.90Q70.53 20.90 71.06 20.15Q71.59 19.40 71.59 17.96L71.59 17.96L71.59 17.51Q71.59 16.09 71.05 15.34Q70.51 14.58 69.53 14.58L69.53 14.58Q68.57 14.58 68.03 15.33Q67.48 16.09 67.47 17.46L67.47 17.46Z" fill="#FFFFFF"/><path class="svg__text" d="M101.42 22L99.04 22L99.04 13.60L101.42 13.60L101.42 22ZM108.92 22L106.59 22L106.59 13.60L108.55 13.60L112.26 18.07L112.26 13.60L114.58 13.60L114.58 22L112.63 22L108.92 17.52L108.92 22ZM119.32 17.80L119.32 17.80Q119.32 16.54 119.91 15.54Q120.51 14.55 121.56 13.99Q122.62 13.43 123.93 13.43L123.93 13.43Q125.09 13.43 126.01 13.84Q126.93 14.25 127.55 15.02L127.55 15.02L126.04 16.39Q125.22 15.40 124.06 15.40L124.06 15.40Q123.37 15.40 122.84 15.70Q122.31 16 122.01 16.54Q121.71 17.09 121.71 17.80L121.71 17.80Q121.71 18.51 122.01 19.05Q122.31 19.60 122.84 19.90Q123.37 20.20 124.06 20.20L124.06 20.20Q125.22 20.20 126.04 19.22L126.04 19.22L127.55 20.58Q126.94 21.35 126.01 21.76Q125.09 22.17 123.93 22.17L123.93 22.17Q122.62 22.17 121.56 21.61Q120.51 21.05 119.91 20.05Q119.32 19.06 119.32 17.80ZM131.66 17.80L131.66 17.80Q131.66 16.55 132.26 15.55Q132.86 14.56 133.93 14.00Q134.99 13.43 136.32 13.43L136.32 13.43Q137.65 13.43 138.71 14.00Q139.78 14.56 140.38 15.55Q140.99 16.55 140.99 17.80L140.99 17.80Q140.99 19.05 140.38 20.04Q139.78 21.04 138.72 21.60Q137.66 22.17 136.32 22.17L136.32 22.17Q134.99 22.17 133.93 21.60Q132.86 21.04 132.26 20.04Q131.66 19.05 131.66 17.80ZM134.05 17.80L134.05 17.80Q134.05 18.51 134.36 19.05Q134.66 19.60 135.17 19.90Q135.69 20.20 136.32 20.20L136.32 20.20Q136.96 20.20 137.48 19.90Q137.99 19.60 138.29 19.05Q138.59 18.51 138.59 17.80L138.59 17.80Q138.59 17.09 138.29 16.54Q137.99 16 137.48 15.70Q136.96 15.40 136.32 15.40L136.32 15.40Q135.68 15.40 135.17 15.70Q134.66 16 134.36 16.54Q134.05 17.09 134.05 17.80ZM148.10 22L145.72 22L145.72 13.60L149.56 13.60Q150.71 13.60 151.54 13.98Q152.38 14.35 152.84 15.06Q153.30 15.76 153.30 16.71L153.30 16.71Q153.30 17.62 152.87 18.30Q152.44 18.98 151.65 19.36L151.65 19.36L153.46 22L150.92 22L149.39 19.77L148.10 19.77L148.10 22ZM148.10 15.47L148.10 17.93L149.42 17.93Q150.15 17.93 150.52 17.61Q150.89 17.29 150.89 16.71L150.89 16.71Q150.89 16.12 150.52 15.79Q150.15 15.47 149.42 15.47L149.42 15.47L148.10 15.47ZM160.46 22L158.08 22L158.08 13.60L161.93 13.60Q163.06 13.60 163.90 13.98Q164.74 14.35 165.20 15.06Q165.66 15.76 165.66 16.71L165.66 16.71Q165.66 17.66 165.20 18.35Q164.74 19.05 163.90 19.42Q163.06 19.80 161.93 19.80L161.93 19.80L160.46 19.80L160.46 22ZM160.46 15.47L160.46 17.93L161.78 17.93Q162.51 17.93 162.88 17.61Q163.26 17.29 163.26 16.71L163.26 16.71Q163.26 16.12 162.88 15.80Q162.51 15.47 161.78 15.47L161.78 15.47L160.46 15.47ZM169.98 17.80L169.98 17.80Q169.98 16.55 170.59 15.55Q171.19 14.56 172.25 14.00Q173.32 13.43 174.65 13.43L174.65 13.43Q175.98 13.43 177.04 14.00Q178.10 14.56 178.71 15.55Q179.32 16.55 179.32 17.80L179.32 17.80Q179.32 19.05 178.71 20.04Q178.10 21.04 177.04 21.60Q175.98 22.17 174.65 22.17L174.65 22.17Q173.32 22.17 172.25 21.60Q171.19 21.04 170.59 20.04Q169.98 19.05 169.98 17.80ZM172.38 17.80L172.38 17.80Q172.38 18.51 172.68 19.05Q172.98 19.60 173.50 19.90Q174.01 20.20 174.65 20.20L174.65 20.20Q175.29 20.20 175.80 19.90Q176.32 19.60 176.62 19.05Q176.91 18.51 176.91 17.80L176.91 17.80Q176.91 17.09 176.62 16.54Q176.32 16 175.80 15.70Q175.29 15.40 174.65 15.40L174.65 15.40Q174.01 15.40 173.50 15.70Q172.98 16 172.68 16.54Q172.38 17.09 172.38 17.80ZM186.42 22L184.05 22L184.05 13.60L187.89 13.60Q189.03 13.60 189.87 13.98Q190.71 14.35 191.16 15.06Q191.62 15.76 191.62 16.71L191.62 16.71Q191.62 17.62 191.19 18.30Q190.77 18.98 189.98 19.36L189.98 19.36L191.79 22L189.24 22L187.72 19.77L186.42 19.77L186.42 22ZM186.42 15.47L186.42 17.93L187.74 17.93Q188.48 17.93 188.85 17.61Q189.22 17.29 189.22 16.71L189.22 16.71Q189.22 16.12 188.85 15.79Q188.48 15.47 187.74 15.47L187.74 15.47L186.42 15.47ZM197.83 22L195.40 22L199.11 13.60L201.45 13.60L205.17 22L202.70 22L202.04 20.37L198.49 20.37L197.83 22ZM200.26 15.93L199.18 18.61L201.34 18.61L200.26 15.93ZM211.12 15.48L208.53 15.48L208.53 13.60L216.06 13.60L216.06 15.48L213.49 15.48L213.49 22L211.12 22L211.12 15.48ZM227.17 22L220.43 22L220.43 13.60L227.02 13.60L227.02 15.44L222.78 15.44L222.78 16.85L226.51 16.85L226.51 18.63L222.78 18.63L222.78 20.17L227.17 20.17L227.17 22ZM235.95 22L231.98 22L231.98 13.60L235.95 13.60Q237.33 13.60 238.40 14.12Q239.46 14.63 240.05 15.58Q240.64 16.53 240.64 17.80L240.64 17.80Q240.64 19.07 240.05 20.02Q239.46 20.97 238.40 21.48Q237.33 22 235.95 22L235.95 22ZM234.35 15.50L234.35 20.10L235.85 20.10Q236.93 20.10 237.59 19.49Q238.24 18.88 238.24 17.80L238.24 17.80Q238.24 16.72 237.59 16.11Q236.93 15.50 235.85 15.50L235.85 15.50L234.35 15.50Z" fill="#FFFFFF" x="97.85"/></svg>